<?xml version="1.0" encoding="UTF-8"?>
<svg id="Capa_5" data-name="Capa 5" xmlns="http://www.w3.org/2000/svg" viewBox="0 0 557.89 558.89">
  <defs>
    <style>
      .cls-1 {
        fill: #fce2e4;
      }

      .cls-2 {
        stroke: #1d1d1b;
        stroke-width: .5px;
      }

      .cls-2, .cls-3 {
        stroke-miterlimit: 10;
      }

      .cls-2, .cls-3, .cls-4 {
        fill: none;
      }

      .cls-5 {
        fill: #2fac66;
      }

      .cls-6 {
        fill: #575756;
      }

      .cls-7 {
        fill: #e6332a;
      }

      .cls-8 {
        fill: #e9c8c7;
      }

      .cls-9 {
        fill: #3aaa35;
      }

      .cls-10 {
        fill: #be1622;
      }

      .cls-11 {
        fill: #e94e1b;
      }

      .cls-12 {
        fill: #f9f19e;
      }

      .cls-13 {
        fill: #9d9d9c;
      }

      .cls-14 {
        fill: #00a19a;
      }

      .cls-15 {
        fill: #7d4e24;
      }

      .cls-16 {
        fill: #3b6650;
      }

      .cls-17 {
        fill: #e09a32;
      }

      .cls-18 {
        fill: #a0b784;
      }

      .cls-19 {
        fill: #ef7872;
      }

      .cls-20 {
        fill: #dadada;
      }

      .cls-21 {
        fill: #d84356;
      }

      .cls-22 {
        fill: #b5d595;
      }

      .cls-23 {
        fill: #426d54;
      }

      .cls-3 {
        stroke: #ededed;
        stroke-width: .1px;
      }

      .cls-24 {
        fill: #3c3c3b;
      }

      .cls-25 {
        fill: #95c11f;
      }

      .cls-26 {
        fill: #878787;
      }

      .cls-27 {
        fill: #ebbd81;
      }

      .cls-28 {
        fill: #fed168;
      }

      .cls-29 {
        fill: #432918;
      }

      .cls-30 {
        fill: #b17f4a;
      }

      .cls-31 {
        fill: #ca9e67;
      }

      .cls-32 {
        fill: #fedca0;
      }

      .cls-33 {
        fill: #c6c6c6;
      }

      .cls-34 {
        fill: #936037;
      }

      .cls-35 {
        fill: #ededed;
      }
    </style>
  </defs>
  <g id="Floor">
    <path class="cls-26" d="m538.48,230.48v25.68c0,4.08-2.41,7.8-6.35,10.51l-3.35,1.91-301.97,172.52s-.08.05-.11.06l-2.52,1.44s-.02.02-.03.02c-3.72,1.83-8.32,2.91-13.28,2.91h-.02c-4.91,0-9.46-1.06-13.16-2.84h-.02l-2.78-1.59s-.05-.03-.08-.05l-146.01-83.42-4.4-2.51c-3.64-2.68-5.86-6.24-5.86-10.16v-25.66c0,3.99,2.32,7.62,6.11,10.34l3.83,2.19c.29.14.6.33.6.33l32.79,18.74,113.52,64.87,1.56.89c.64.33,1.3.64,1.98.92,3.46,1.45,7.54,2.27,11.91,2.27s8.45-.83,11.91-2.27c.86-.37,1.67-.75,2.45-1.18.29-.16.56-.32.83-.48l269.16-153.76,32.82-18.75,1.3-.75s.06-.03.1-.05l2.24-1.29c4.21-2.75,6.83-6.59,6.83-10.85Z"/>
    <path class="cls-20" d="m538.48,230.48c0,4.26-2.62,8.1-6.83,10.85l-2.24,1.29s-.06.03-.1.05l-1.3.75-32.82,18.75-269.16,153.76c-.27.16-.54.32-.83.48-.78.43-1.59.81-2.45,1.18-3.46,1.45-7.54,2.27-11.91,2.27s-8.45-.83-11.91-2.27c-.68-.29-1.35-.59-1.98-.92l-1.56-.89-113.52-64.87-32.79-18.74s-.32-.19-.6-.33l-3.83-2.19c-3.8-2.72-6.11-6.35-6.11-10.34,0-3.75,2.56-8.04,5.62-9.92l5.22-3h.02l299.04-170.83c.57-.37,1.18-.7,1.81-1.03,4.41-2.25,10.07-3.62,16.23-3.62s11.67,1.32,16.05,3.53l2.22,1.27,145.5,83.15c5.02,2.76,8.21,6.97,8.21,11.66Z"/>
  </g>
  <g id="Artcl">
    <g>
      <path class="cls-24" d="m200.64,214.5v67.62l-2.76-1.57v-22.41l-16.69-9.53-11.5-6.57-2.1-1.19-4.11,20.04-2.14-1.22,4.11-20.04.7-3.45,8.96-43.7v4.99c0,1.27.21,2.49.62,3.68v.02l-6.86,33.46-.02.05-.56,2.73.52.3,1.59.91.56.32,13.35,7.62,13.56,7.75v-3.05l-.02-8.53v-28.33c.91.08,1.84.11,2.78.11Z"/>
      <polygon class="cls-6" points="169.69 242.04 169.63 242.34 166.15 259.36 166.14 259.38 163.49 260.88 167.6 240.84 169.69 242.04"/>
      <line class="cls-4" x1="235.15" y1="236.18" x2="226.19" y2="192.48"/>
      <polygon class="cls-24" points="237.83 260.88 235.05 259.3 231.53 242.1 233.72 240.84 237.83 260.88"/>
      <path class="cls-31" d="m226.16,192.48l-.08,1.25-.02.1v.06c-.02.17-.05.33-.08.51-.03.19-.06.38-.11.57-.19.97-.52,1.92-.98,2.83-.38.79-.87,1.57-1.43,2.32-3.81,5.08-11.31,8.7-20.15,9.32-.87.06-1.76.1-2.67.1s-1.87-.03-2.78-.11c-8.78-.62-16.21-4.22-20.01-9.26v-.02c-.57-.75-1.06-1.51-1.45-2.3v-.02c-.48-.92-.81-1.87-1.02-2.86-.19-.81-.29-1.65-.29-2.49,0-9.42,11.43-17.04,25.53-17.04s25.52,7.62,25.52,17.04Z"/>
      <path class="cls-24" d="m230.24,235.83v-.02l-.13-.62-.44-2.13v-.02l-5.84-28.5c.16-.19.29-.4.41-.6.57-.91,1.02-1.84,1.33-2.83l6.88,33.52.56,2.76-2.76-1.57Z"/>
      <polygon class="cls-24" points="230.23 235.81 229.7 236.11 227.58 237.34 203.31 223.47 203.31 220.44 230.23 235.81"/>
      <polygon class="cls-6" points="197.88 251.25 197.88 254.29 184.32 246.55 170.96 238.92 170.41 238.61 168.82 237.7 168.3 237.4 170.96 235.87 171.49 236.18 173.63 237.4 187.21 245.15 197.88 251.25"/>
      <polygon class="cls-24" points="197.86 220.52 197.86 223.55 173.63 237.4 171.49 236.18 170.96 235.87 197.86 220.52"/>
      <polygon class="cls-6" points="197.86 218.07 197.86 220.52 170.96 235.87 171.54 233.11 197.86 218.07"/>
      <polygon class="cls-6" points="233.01 237.4 232.48 237.7 230.83 238.64 230.83 238.65 230.35 238.92 216.98 246.56 203.31 254.36 203.31 251.2 213.97 245.1 227.58 237.34 229.7 236.11 230.23 235.81 230.24 235.81 230.24 235.83 233.01 237.4"/>
      <path class="cls-30" d="m226.16,192.48v4.99c0,1.25-.21,2.46-.59,3.64v.02c-.32.98-.76,1.92-1.33,2.83-.13.21-.25.41-.41.6-3.65,5.35-11.37,9.23-20.52,9.86-.87.06-1.76.1-2.67.1s-1.87-.03-2.78-.11c-9.15-.65-16.83-4.53-20.47-9.91-.13-.16-.24-.32-.33-.48-.57-.91-1.02-1.86-1.33-2.84v-.02c-.41-1.19-.62-2.41-.62-3.68v-4.99c0,.84.1,1.68.29,2.49.21.98.54,1.94,1.02,2.86v.02c.38.79.87,1.56,1.45,2.3v.02c3.8,5.03,11.23,8.64,20.01,9.26.91.08,1.84.11,2.78.11s1.79-.03,2.67-.1c8.84-.62,16.34-4.24,20.15-9.32.56-.75,1.05-1.52,1.43-2.32.46-.91.79-1.86.98-2.83.05-.19.08-.38.11-.57.03-.16.06-.33.08-.51v-.06l.02-.1c.06-.41.08-.83.08-1.25Z"/>
      <path class="cls-6" d="m177.4,204.48v.05l-5.86,28.58-.57,2.76-2.67,1.52.56-2.73.02-.05,6.86-33.46c.32.98.76,1.94,1.33,2.84.1.16.21.32.33.48Z"/>
      <path class="cls-6" d="m239.96,259.66l-2.13,1.22-4.11-20.04-2.19,1.25-11.43,6.53-16.78,9.59v22.37l-2.65,1.54h-.02v-29.41l.02-30.77h-.02v-7.45c.91,0,1.79-.03,2.67-.1v39.95l13.67-7.8,13.37-7.64.48-.27v-.02l1.65-.94.52-.3-.56-2.76-6.88-33.52v-.02c.38-1.18.59-2.38.59-3.64v-4.99l8.99,43.7.7,3.45,4.11,20.04Z"/>
      <polygon class="cls-6" points="230.24 235.81 230.23 235.81 203.31 220.44 203.31 218.07 229.67 233.06 230.12 235.19 230.24 235.81"/>
    </g>
    <g>
      <path class="cls-24" d="m281.9,165.87v67.62l-2.76-1.57v-22.41l-16.69-9.53-11.5-6.57-2.1-1.19-4.11,20.04-2.14-1.22,4.11-20.04.7-3.45,8.96-43.7v4.99c0,1.27.21,2.49.62,3.68v.02l-6.86,33.46-.02.05-.56,2.73.52.3,1.59.91.56.32,13.35,7.62,13.56,7.75v-3.05l-.02-8.53v-28.33c.91.08,1.84.11,2.78.11Z"/>
      <polygon class="cls-6" points="250.95 193.4 250.88 193.71 247.41 210.73 247.39 210.75 244.74 212.25 248.85 192.21 250.95 193.4"/>
      <line class="cls-4" x1="316.4" y1="187.54" x2="307.45" y2="143.84"/>
      <polygon class="cls-24" points="319.09 212.25 316.31 210.67 312.78 193.47 314.97 192.21 319.09 212.25"/>
      <path class="cls-31" d="m307.41,143.84l-.08,1.25-.02.1v.06c-.02.17-.05.33-.08.51-.03.19-.06.38-.11.57-.19.97-.52,1.92-.98,2.83-.38.79-.87,1.57-1.43,2.32-3.81,5.08-11.31,8.7-20.15,9.32-.87.06-1.76.1-2.67.1s-1.87-.03-2.78-.11c-8.78-.62-16.21-4.22-20.01-9.26v-.02c-.57-.75-1.06-1.51-1.45-2.3v-.02c-.48-.92-.81-1.87-1.02-2.86-.19-.81-.29-1.65-.29-2.49,0-9.42,11.43-17.04,25.53-17.04s25.52,7.62,25.52,17.04Z"/>
      <path class="cls-24" d="m311.5,187.2v-.02l-.13-.62-.44-2.13v-.02l-5.84-28.5c.16-.19.29-.4.41-.6.57-.91,1.02-1.84,1.33-2.83l6.88,33.52.56,2.76-2.76-1.57Z"/>
      <polygon class="cls-24" points="311.48 187.18 310.96 187.48 308.83 188.7 284.56 174.84 284.56 171.81 311.48 187.18"/>
      <polygon class="cls-6" points="279.13 202.61 279.13 205.66 265.57 197.91 252.22 190.29 251.66 189.97 250.07 189.07 249.55 188.77 252.22 187.24 252.74 187.54 254.88 188.77 268.46 196.52 279.13 202.61"/>
      <polygon class="cls-24" points="279.12 171.89 279.12 174.92 254.88 188.77 252.74 187.54 252.22 187.24 279.12 171.89"/>
      <polygon class="cls-6" points="279.12 169.44 279.12 171.89 252.22 187.24 252.79 184.48 279.12 169.44"/>
      <polygon class="cls-6" points="314.26 188.77 313.73 189.07 312.08 190.01 312.08 190.02 311.61 190.29 298.24 197.93 284.56 205.73 284.56 202.57 295.22 196.47 308.83 188.7 310.96 187.48 311.48 187.18 311.5 187.18 311.5 187.2 314.26 188.77"/>
      <path class="cls-30" d="m307.41,143.84v4.99c0,1.25-.21,2.46-.59,3.64v.02c-.32.98-.76,1.92-1.33,2.83-.13.21-.25.41-.41.6-3.65,5.35-11.37,9.23-20.52,9.86-.87.06-1.76.1-2.67.1s-1.87-.03-2.78-.11c-9.15-.65-16.83-4.53-20.47-9.91-.13-.16-.24-.32-.33-.48-.57-.91-1.02-1.86-1.33-2.84v-.02c-.41-1.19-.62-2.41-.62-3.68v-4.99c0,.84.1,1.68.29,2.49.21.98.54,1.94,1.02,2.86v.02c.38.79.87,1.56,1.45,2.3v.02c3.8,5.03,11.23,8.64,20.01,9.26.91.08,1.84.11,2.78.11s1.79-.03,2.67-.1c8.84-.62,16.34-4.24,20.15-9.32.56-.75,1.05-1.52,1.43-2.32.46-.91.79-1.86.98-2.83.05-.19.08-.38.11-.57.03-.16.06-.33.08-.51v-.06l.02-.1c.06-.41.08-.83.08-1.25Z"/>
      <path class="cls-6" d="m258.65,155.85v.05l-5.86,28.58-.57,2.76-2.67,1.52.56-2.73.02-.05,6.86-33.46c.32.98.76,1.94,1.33,2.84.1.16.21.32.33.48Z"/>
      <path class="cls-6" d="m321.21,211.03l-2.13,1.22-4.11-20.04-2.19,1.25-11.43,6.53-16.78,9.59v22.37l-2.65,1.54h-.02v-29.41l.02-30.77h-.02v-7.45c.91,0,1.79-.03,2.67-.1v39.95l13.67-7.8,13.37-7.64.48-.27v-.02l1.65-.94.52-.3-.56-2.76-6.88-33.52v-.02c.38-1.18.59-2.38.59-3.64v-4.99l8.99,43.7.7,3.45,4.11,20.04Z"/>
      <polygon class="cls-6" points="311.5 187.18 311.48 187.18 284.56 171.81 284.56 169.44 310.92 184.43 311.37 186.56 311.5 187.18"/>
    </g>
    <g>
      <polygon class="cls-30" points="403.49 139.13 403.49 146.59 377.21 161.61 373.24 163.87 369.27 166.14 340.63 182.51 336.66 184.78 336.64 184.78 332.69 187.05 239.15 240.48 231.22 245.03 220.59 251.09 202.55 240.79 198.58 238.52 194.61 236.24 168.33 221.24 168.33 213.78 220.59 243.63 403.49 139.13"/>
      <polygon class="cls-31" points="403.49 139.13 220.59 243.63 168.33 213.78 351.25 109.26 403.49 139.13"/>
      <polygon class="cls-10" points="336.67 191 336.66 191.02 336.66 191 336.67 191"/>
      <polygon class="cls-6" points="231.22 283.99 231.22 288.54 222.93 283.8 202.55 272.16 202.16 271.93 198.58 269.89 202.55 267.62 206.13 269.67 226.9 281.53 231.22 283.99"/>
      <polygon class="cls-24" points="336.66 191.02 336.66 195.1 336.64 195.1 332.69 197.37 239.15 250.79 239.15 246.71 332.69 193.29 336.64 191.02 336.66 191.02"/>
      <polygon class="cls-6" points="336.66 191 336.66 191.02 336.64 191.02 239.15 246.71 239.15 242.17 332.69 188.73 336.26 190.78 336.64 190.99 336.66 191"/>
      <polygon class="cls-10" points="336.67 191 336.66 191.02 336.66 191 336.67 191"/>
      <polygon class="cls-6" points="373.24 211.93 369.67 213.97 369.27 214.2 348.9 225.83 239.15 288.54 239.15 283.99 344.93 223.56 344.94 223.56 365.68 211.69 365.7 211.69 369.27 209.66 373.24 211.93"/>
      <polygon class="cls-6" points="377.21 161.61 377.21 242.01 373.24 244.28 373.24 216.01 369.27 218.28 352.47 227.88 239.15 292.62 239.15 320.87 235.19 323.15 235.19 242.76 239.15 240.48 239.15 288.54 348.9 225.83 373.24 211.93 373.24 163.87 377.21 161.61"/>
      <polygon class="cls-6" points="202.55 276.25 202.55 299.97 198.58 302.24 198.58 273.97 202.55 276.25"/>
      <polygon class="cls-6" points="369.27 205.12 369.27 209.66 340.63 193.27 336.67 191 337.05 190.8 340.63 188.75 369.27 205.12"/>
      <polygon class="cls-24" points="336.66 195.1 336.66 223.37 332.69 221.1 332.69 197.37 336.64 195.1 336.66 195.1"/>
      <polygon class="cls-24" points="235.19 242.76 235.19 323.15 231.22 320.88 231.22 292.62 219.35 285.84 202.55 276.25 198.58 273.97 198.58 302.24 194.61 299.97 194.61 236.24 198.58 238.52 198.58 269.89 202.16 271.93 202.55 272.16 222.93 283.8 231.22 288.54 231.22 245.03 235.19 242.76"/>
      <polygon class="cls-6" points="202.55 240.79 202.55 267.62 198.58 269.89 198.58 238.52 202.55 240.79"/>
      <polygon class="cls-6" points="231.22 246.71 231.22 251.25 202.55 267.62 202.55 263.08 231.22 246.71"/>
      <polygon class="cls-24" points="231.22 251.25 231.22 255.33 206.13 269.67 202.55 267.62 231.22 251.25"/>
      <polygon class="cls-24" points="336.66 184.78 336.66 191 336.64 190.99 336.26 190.78 332.69 188.73 332.69 187.05 336.64 184.78 336.66 184.78"/>
      <polygon class="cls-6" points="340.63 182.51 340.63 188.75 337.05 190.8 336.67 191 336.66 191 336.66 184.78 340.63 182.51"/>
      <polygon class="cls-24" points="373.24 216.01 373.24 244.28 369.27 242.01 369.27 218.28 373.24 216.01"/>
      <polygon class="cls-6" points="340.63 197.37 340.63 221.08 340.61 221.1 336.66 223.37 336.66 195.12 340.63 197.37"/>
      <polygon class="cls-24" points="369.27 209.66 365.7 211.69 365.68 211.69 340.63 197.37 336.66 195.12 336.66 191.02 336.67 191 369.27 209.66"/>
      <polygon class="cls-24" points="373.24 163.87 373.24 211.93 369.27 209.66 369.27 166.14 373.24 163.87"/>
    </g>
    <g>
      <path class="cls-24" d="m308.42,277.98v67.62l-2.76-1.57v-22.41l-16.69-9.53-11.5-6.57-2.1-1.19-4.11,20.04-2.14-1.22,4.11-20.04.7-3.45,8.96-43.7v4.99c0,1.27.21,2.49.62,3.68v.02l-6.86,33.46-.02.05-.56,2.73.52.3,1.59.91.56.32,13.35,7.62,13.56,7.75v-3.05l-.02-8.53v-28.33c.91.08,1.84.11,2.78.11Z"/>
      <polygon class="cls-6" points="277.47 305.51 277.4 305.81 273.93 322.84 273.91 322.85 271.26 324.36 275.37 304.32 277.47 305.51"/>
      <line class="cls-4" x1="342.92" y1="299.65" x2="333.97" y2="255.95"/>
      <polygon class="cls-24" points="345.61 324.36 342.83 322.77 339.3 305.57 341.49 304.32 345.61 324.36"/>
      <path class="cls-31" d="m333.94,255.95l-.08,1.25-.02.1v.06c-.02.17-.05.33-.08.51-.03.19-.06.38-.11.57-.19.97-.52,1.92-.98,2.83-.38.79-.87,1.57-1.43,2.32-3.81,5.08-11.31,8.7-20.15,9.32-.87.06-1.76.1-2.67.1s-1.87-.03-2.78-.11c-8.78-.62-16.21-4.22-20.01-9.26v-.02c-.57-.75-1.06-1.51-1.45-2.3v-.02c-.48-.92-.81-1.87-1.02-2.86-.19-.81-.29-1.65-.29-2.49,0-9.42,11.43-17.04,25.53-17.04s25.52,7.62,25.52,17.04Z"/>
      <path class="cls-24" d="m338.02,299.3v-.02l-.13-.62-.44-2.13v-.02l-5.84-28.5c.16-.19.29-.4.41-.6.57-.91,1.02-1.84,1.33-2.83l6.88,33.52.56,2.76-2.76-1.57Z"/>
      <polygon class="cls-24" points="338 299.29 337.48 299.59 335.35 300.81 311.08 286.95 311.08 283.92 338 299.29"/>
      <polygon class="cls-6" points="305.65 314.72 305.65 317.77 292.09 310.02 278.74 302.4 278.18 302.08 276.59 301.18 276.07 300.87 278.74 299.35 279.26 299.65 281.41 300.87 294.98 308.62 305.65 314.72"/>
      <polygon class="cls-24" points="305.64 283.99 305.64 287.03 281.41 300.87 279.26 299.65 278.74 299.35 305.64 283.99"/>
      <polygon class="cls-6" points="305.64 281.55 305.64 283.99 278.74 299.35 279.31 296.59 305.64 281.55"/>
      <polygon class="cls-6" points="340.78 300.87 340.26 301.18 338.6 302.11 338.6 302.13 338.13 302.4 324.76 310.04 311.08 317.83 311.08 314.67 321.74 308.58 335.35 300.81 337.48 299.59 338 299.29 338.02 299.29 338.02 299.3 340.78 300.87"/>
      <path class="cls-30" d="m333.94,255.95v4.99c0,1.25-.21,2.46-.59,3.64v.02c-.32.98-.76,1.92-1.33,2.83-.13.21-.25.41-.41.6-3.65,5.35-11.37,9.23-20.52,9.86-.87.06-1.76.1-2.67.1s-1.87-.03-2.78-.11c-9.15-.65-16.83-4.53-20.47-9.91-.13-.16-.24-.32-.33-.48-.57-.91-1.02-1.86-1.33-2.84v-.02c-.41-1.19-.62-2.41-.62-3.68v-4.99c0,.84.1,1.68.29,2.49.21.98.54,1.94,1.02,2.86v.02c.38.79.87,1.56,1.45,2.3v.02c3.8,5.03,11.23,8.64,20.01,9.26.91.08,1.84.11,2.78.11s1.79-.03,2.67-.1c8.84-.62,16.34-4.24,20.15-9.32.56-.75,1.05-1.52,1.43-2.32.46-.91.79-1.86.98-2.83.05-.19.08-.38.11-.57.03-.16.06-.33.08-.51v-.06l.02-.1c.06-.41.08-.83.08-1.25Z"/>
      <path class="cls-6" d="m285.17,267.96v.05l-5.86,28.58-.57,2.76-2.67,1.52.56-2.73.02-.05,6.86-33.46c.32.98.76,1.94,1.33,2.84.1.16.21.32.33.48Z"/>
      <path class="cls-6" d="m347.74,323.14l-2.13,1.22-4.11-20.04-2.19,1.25-11.43,6.53-16.78,9.59v22.37l-2.65,1.54h-.02v-29.41l.02-30.77h-.02v-7.45c.91,0,1.79-.03,2.67-.1v39.95l13.67-7.8,13.37-7.64.48-.27v-.02l1.65-.94.52-.3-.56-2.76-6.88-33.52v-.02c.38-1.18.59-2.38.59-3.64v-4.99l8.99,43.7.7,3.45,4.11,20.04Z"/>
      <polygon class="cls-6" points="338.02 299.29 338 299.29 311.08 283.92 311.08 281.55 337.45 296.54 337.89 298.67 338.02 299.29"/>
    </g>
    <g>
      <path class="cls-24" d="m389.67,229.34v67.62l-2.76-1.57v-22.41l-16.69-9.53-11.5-6.57-2.1-1.19-4.11,20.04-2.14-1.22,4.11-20.04.7-3.45,8.96-43.7v4.99c0,1.27.21,2.49.62,3.68v.02l-6.86,33.46-.02.05-.56,2.73.52.3,1.59.91.56.32,13.35,7.62,13.56,7.75v-3.05l-.02-8.53v-28.33c.91.08,1.84.11,2.78.11Z"/>
      <polygon class="cls-6" points="358.72 256.88 358.66 257.18 355.18 274.2 355.16 274.22 352.51 275.73 356.62 255.69 358.72 256.88"/>
      <line class="cls-4" x1="424.18" y1="251.02" x2="415.22" y2="207.32"/>
      <polygon class="cls-24" points="426.86 275.73 424.08 274.14 420.56 256.94 422.75 255.69 426.86 275.73"/>
      <path class="cls-31" d="m415.19,207.32l-.08,1.25-.02.1v.06c-.02.17-.05.33-.08.51-.03.19-.06.38-.11.57-.19.97-.52,1.92-.98,2.83-.38.79-.87,1.57-1.43,2.32-3.81,5.08-11.31,8.7-20.15,9.32-.87.06-1.76.1-2.67.1s-1.87-.03-2.78-.11c-8.78-.62-16.21-4.22-20.01-9.26v-.02c-.57-.75-1.06-1.51-1.45-2.3v-.02c-.48-.92-.81-1.87-1.02-2.86-.19-.81-.29-1.65-.29-2.49,0-9.42,11.43-17.04,25.53-17.04s25.52,7.62,25.52,17.04Z"/>
      <path class="cls-24" d="m419.27,250.67v-.02l-.13-.62-.44-2.13v-.02l-5.84-28.5c.16-.19.29-.4.41-.6.57-.91,1.02-1.84,1.33-2.83l6.88,33.52.56,2.76-2.76-1.57Z"/>
      <polygon class="cls-24" points="419.25 250.66 418.73 250.96 416.6 252.18 392.34 238.32 392.34 235.28 419.25 250.66"/>
      <polygon class="cls-6" points="386.91 266.09 386.91 269.14 373.35 261.39 359.99 253.77 359.43 253.45 357.85 252.55 357.32 252.24 359.99 250.72 360.51 251.02 362.66 252.24 376.24 259.99 386.91 266.09"/>
      <polygon class="cls-24" points="386.89 235.36 386.89 238.4 362.66 252.24 360.51 251.02 359.99 250.72 386.89 235.36"/>
      <polygon class="cls-6" points="386.89 232.92 386.89 235.36 359.99 250.72 360.56 247.96 386.89 232.92"/>
      <polygon class="cls-6" points="422.03 252.24 421.51 252.55 419.86 253.48 419.86 253.5 419.38 253.77 406.01 261.41 392.34 269.2 392.34 266.04 402.99 259.94 416.6 252.18 418.73 250.96 419.25 250.66 419.27 250.66 419.27 250.67 422.03 252.24"/>
      <path class="cls-30" d="m415.19,207.32v4.99c0,1.25-.21,2.46-.59,3.64v.02c-.32.98-.76,1.92-1.33,2.83-.13.21-.25.41-.41.6-3.65,5.35-11.37,9.23-20.52,9.86-.87.06-1.76.1-2.67.1s-1.87-.03-2.78-.11c-9.15-.65-16.83-4.53-20.47-9.91-.13-.16-.24-.32-.33-.48-.57-.91-1.02-1.86-1.33-2.84v-.02c-.41-1.19-.62-2.41-.62-3.68v-4.99c0,.84.1,1.68.29,2.49.21.98.54,1.94,1.02,2.86v.02c.38.79.87,1.56,1.45,2.3v.02c3.8,5.03,11.23,8.64,20.01,9.26.91.08,1.84.11,2.78.11s1.79-.03,2.67-.1c8.84-.62,16.34-4.24,20.15-9.32.56-.75,1.05-1.52,1.43-2.32.46-.91.79-1.86.98-2.83.05-.19.08-.38.11-.57.03-.16.06-.33.08-.51v-.06l.02-.1c.06-.41.08-.83.08-1.25Z"/>
      <path class="cls-6" d="m366.42,219.32v.05l-5.86,28.58-.57,2.76-2.67,1.52.56-2.73.02-.05,6.86-33.46c.32.98.76,1.94,1.33,2.84.1.16.21.32.33.48Z"/>
      <path class="cls-6" d="m428.99,274.51l-2.13,1.22-4.11-20.04-2.19,1.25-11.43,6.53-16.78,9.59v22.37l-2.65,1.54h-.02v-29.41l.02-30.77h-.02v-7.45c.91,0,1.79-.03,2.67-.1v39.95l13.67-7.8,13.37-7.64.48-.27v-.02l1.65-.94.52-.3-.56-2.76-6.88-33.52v-.02c.38-1.18.59-2.38.59-3.64v-4.99l8.99,43.7.7,3.45,4.11,20.04Z"/>
      <polygon class="cls-6" points="419.27 250.66 419.25 250.66 392.34 235.28 392.34 232.92 418.7 247.91 419.14 250.04 419.27 250.66"/>
    </g>
  </g>
  <g id="OnTab">
    <ellipse class="cls-2" cx="136.3" cy="361.01" rx="16.68" ry="11.14"/>
    <g>
      <path class="cls-6" d="m248.29,209.23c0,9.42-11.43,17.05-25.53,17.05s-25.52-7.64-25.52-17.05c0-.1,0-.21.02-.3.24,9.27,11.56,16.75,25.5,16.75s25.28-7.48,25.52-16.75c.02.1.02.21.02.3Z"/>
      <path class="cls-33" d="m248.29,208.63c0,.1,0,.21-.02.3-.24,9.27-11.58,16.75-25.52,16.75s-25.26-7.48-25.5-16.75c-.02-.1-.02-.21-.02-.3,0-9.4,11.42-17.04,25.52-17.04s25.53,7.64,25.53,17.04Z"/>
    </g>
    <g>
      <path class="cls-6" d="m327.27,169.84c0,9.88-13.28,17.89-29.65,17.89s-29.63-8.01-29.63-17.89c0-.1,0-.22.02-.32.28,9.73,13.42,17.57,29.62,17.57s29.36-7.85,29.63-17.57c.02.1.02.22.02.32Z"/>
      <path class="cls-33" d="m327.27,169.2c0,.1,0,.22-.02.32-.28,9.73-13.44,17.57-29.63,17.57s-29.34-7.85-29.62-17.57c-.02-.1-.02-.22-.02-.32,0-9.86,13.26-17.87,29.63-17.87s29.65,8.01,29.65,17.87Z"/>
    </g>
    <g>
      <ellipse class="cls-27" cx="295.59" cy="156.72" rx="11.15" ry="7.45"/>
      <ellipse class="cls-32" cx="295.59" cy="155.8" rx="10.81" ry="6.53"/>
      <ellipse class="cls-15" cx="295.59" cy="153.58" rx="10.6" ry="7.75"/>
      <ellipse class="cls-34" cx="295.59" cy="152.52" rx="10.04" ry="6.71"/>
      <path class="cls-28" d="m288.38,158.98s.32-1.24,1.44-1.52,2.45-.75,6.44-.86,5.79-.03,6.5.24,1.96,1.17,1.96,1.17c0,0,.33-3.02-.22-3.57s-1.41-1.44-2.52-1.38-13.27.28-13.27.28c0,0-1.4,3.45-.32,5.65Z"/>
      <g>
        <ellipse class="cls-21" cx="289.72" cy="154.28" rx="3.61" ry="2.55"/>
        <ellipse class="cls-19" cx="289.72" cy="153.88" rx="3.41" ry="2.15"/>
      </g>
      <g>
        <ellipse class="cls-21" cx="296.26" cy="156.59" rx="3.61" ry="2.55"/>
        <ellipse class="cls-19" cx="296.26" cy="156.19" rx="3.41" ry="2.15"/>
      </g>
      <g>
        <ellipse class="cls-21" cx="301.87" cy="153.17" rx="3.61" ry="2.55"/>
        <ellipse class="cls-19" cx="301.87" cy="152.77" rx="3.41" ry="2.15"/>
      </g>
      <path class="cls-9" d="m303.55,155.48s-.33-.1-.62,0,.24.84-.14,1.06-.85-.58-1.28-.35-.09.88-.56,1.15-.65-.62-1.21-.35.12.88-.5,1.16-.69-.7-1.33-.63-.19.79-.83.89-.69-.64-1.18-.64-.45.77-1.15.76-.72-.57-1.23-.71-.88.51-1.67.34-.09-.68-.68-.91-1.14.49-1.47.16c0,0,.07-.5-.36-.79s.74-1.37.74-1.37c0,0,4.86-.93,7.24-1.03s4.88-.71,6-.12.72,1.26.22,1.38Z"/>
      <path class="cls-25" d="m303.55,155.3s-.33-.1-.62,0,.24.84-.14,1.06-.85-.58-1.28-.35-.09.88-.56,1.15-.65-.62-1.21-.35.12.88-.5,1.16-.69-.7-1.33-.63-.19.79-.83.89-.69-.64-1.18-.64-.45.77-1.15.76-.72-.57-1.23-.71-.88.51-1.67.34-.09-.68-.68-.91-1.14.49-1.47.16c0,0,.07-.5-.36-.79s.74-1.37.74-1.37c0,0,4.86-.93,7.24-1.03s4.88-.71,6-.12.72,1.26.22,1.38Z"/>
      <ellipse class="cls-27" cx="295.57" cy="149.96" rx="11.15" ry="7.45"/>
      <ellipse class="cls-32" cx="295.64" cy="148.6" rx=".16" ry=".42"/>
      <ellipse class="cls-32" cx="298.3" cy="147.77" rx=".16" ry=".42" transform="translate(-5.95 282.86) rotate(-50.29)"/>
      <ellipse class="cls-32" cx="292.79" cy="147.71" rx=".42" ry=".16" transform="translate(-26.83 221.12) rotate(-39.71)"/>
      <ellipse class="cls-32" cx="295.57" cy="144.45" rx=".16" ry=".42"/>
      <ellipse class="cls-32" cx="298.23" cy="145.29" rx=".42" ry=".16" transform="translate(-24.03 224.03) rotate(-39.71)"/>
      <ellipse class="cls-32" cx="292.72" cy="145.35" rx=".16" ry=".42" transform="translate(-6.1 277.69) rotate(-50.29)"/>
      <ellipse class="cls-32" cx="300.98" cy="149.54" rx=".16" ry=".42" transform="translate(-8.38 280.87) rotate(-49.42)"/>
      <ellipse class="cls-32" cx="298.61" cy="151.02" rx=".42" ry=".16" transform="translate(143.06 447.3) rotate(-89.13)"/>
      <ellipse class="cls-32" cx="302.15" cy="146.8" rx=".42" ry=".16" transform="translate(-20.44 53.1) rotate(-9.72)"/>
      <ellipse class="cls-32" cx="290.12" cy="149.78" rx=".42" ry=".16" transform="translate(-27.66 224.73) rotate(-40.58)"/>
      <ellipse class="cls-32" cx="292.48" cy="151.26" rx=".16" ry=".42" transform="translate(-2.27 4.47) rotate(-.87)"/>
      <ellipse class="cls-32" cx="288.94" cy="147.04" rx=".16" ry=".42" transform="translate(95.25 407.02) rotate(-80.28)"/>
      <ellipse class="cls-32" cx="289.85" cy="144.66" rx=".16" ry=".42" transform="translate(47.31 359.41) rotate(-68.04)"/>
      <ellipse class="cls-32" cx="293.45" cy="143.31" rx=".16" ry=".42" transform="translate(-28.9 90.92) rotate(-16.8)"/>
      <ellipse class="cls-32" cx="297.89" cy="143.61" rx=".42" ry=".16" transform="translate(5.04 297.24) rotate(-53.42)"/>
      <ellipse class="cls-32" cx="300.98" cy="144.87" rx=".42" ry=".16" transform="translate(-32.11 169.9) rotate(-30)"/>
      <ellipse class="cls-32" cx="295.59" cy="151.89" rx=".42" ry=".16" transform="translate(139.22 445.12) rotate(-89.13)"/>
    </g>
    <g>
      <ellipse class="cls-27" cx="317.91" cy="162.84" rx="11.15" ry="7.45"/>
      <ellipse class="cls-32" cx="317.91" cy="161.92" rx="10.81" ry="6.53"/>
      <ellipse class="cls-15" cx="317.91" cy="159.7" rx="10.6" ry="7.75"/>
      <ellipse class="cls-34" cx="317.91" cy="158.65" rx="10.04" ry="6.71"/>
      <path class="cls-28" d="m310.7,165.1s.32-1.24,1.44-1.52,2.45-.75,6.44-.86,5.79-.03,6.5.24,1.96,1.17,1.96,1.17c0,0,.33-3.02-.22-3.57s-1.41-1.44-2.52-1.38-13.27.28-13.27.28c0,0-1.4,3.45-.32,5.65Z"/>
      <g>
        <ellipse class="cls-21" cx="312.04" cy="160.4" rx="3.61" ry="2.55"/>
        <ellipse class="cls-19" cx="312.04" cy="160" rx="3.41" ry="2.15"/>
      </g>
      <g>
        <ellipse class="cls-21" cx="318.58" cy="162.72" rx="3.61" ry="2.55"/>
        <ellipse class="cls-19" cx="318.58" cy="162.32" rx="3.41" ry="2.15"/>
      </g>
      <g>
        <ellipse class="cls-21" cx="324.19" cy="159.3" rx="3.61" ry="2.55"/>
        <ellipse class="cls-19" cx="324.19" cy="158.9" rx="3.41" ry="2.15"/>
      </g>
      <path class="cls-9" d="m325.87,161.61s-.33-.1-.62,0,.24.84-.14,1.06-.85-.58-1.28-.35-.09.88-.56,1.15-.65-.62-1.21-.35.12.88-.5,1.16-.69-.7-1.33-.63-.19.79-.83.89-.69-.64-1.18-.64-.45.77-1.15.76-.72-.57-1.23-.71-.88.51-1.67.34-.09-.68-.68-.91-1.14.49-1.47.16c0,0,.07-.5-.36-.79s.74-1.37.74-1.37c0,0,4.86-.93,7.24-1.03s4.88-.71,6-.12.72,1.26.22,1.38Z"/>
      <path class="cls-25" d="m325.87,161.43s-.33-.1-.62,0,.24.84-.14,1.06-.85-.58-1.28-.35-.09.88-.56,1.15-.65-.62-1.21-.35.12.88-.5,1.16-.69-.7-1.33-.63-.19.79-.83.89-.69-.64-1.18-.64-.45.77-1.15.76-.72-.57-1.23-.71-.88.51-1.67.34-.09-.68-.68-.91-1.14.49-1.47.16c0,0,.07-.5-.36-.79s.74-1.37.74-1.37c0,0,4.86-.93,7.24-1.03s4.88-.71,6-.12.72,1.26.22,1.38Z"/>
      <ellipse class="cls-27" cx="317.89" cy="156.08" rx="11.15" ry="7.45"/>
      <ellipse class="cls-32" cx="317.96" cy="154.73" rx=".16" ry=".42"/>
      <ellipse class="cls-32" cx="320.62" cy="153.89" rx=".16" ry=".42" transform="translate(-2.6 302.25) rotate(-50.29)"/>
      <ellipse class="cls-32" cx="315.11" cy="153.83" rx=".42" ry=".16" transform="translate(-25.59 236.79) rotate(-39.71)"/>
      <ellipse class="cls-32" cx="317.89" cy="150.58" rx=".16" ry=".42"/>
      <ellipse class="cls-32" cx="320.55" cy="151.41" rx=".42" ry=".16" transform="translate(-22.79 239.71) rotate(-39.71)"/>
      <ellipse class="cls-32" cx="315.04" cy="151.47" rx=".16" ry=".42" transform="translate(-2.75 297.08) rotate(-50.29)"/>
      <ellipse class="cls-32" cx="323.3" cy="155.67" rx=".16" ry=".42" transform="translate(-5.23 299.96) rotate(-49.42)"/>
      <ellipse class="cls-32" cx="320.94" cy="157.15" rx=".42" ry=".16" transform="translate(158.92 475.65) rotate(-89.13)"/>
      <ellipse class="cls-32" cx="324.48" cy="152.92" rx=".42" ry=".16" transform="translate(-21.15 56.96) rotate(-9.72)"/>
      <ellipse class="cls-32" cx="312.44" cy="155.9" rx=".42" ry=".16" transform="translate(-26.28 240.73) rotate(-40.58)"/>
      <ellipse class="cls-32" cx="314.8" cy="157.38" rx=".16" ry=".42" transform="translate(-2.36 4.81) rotate(-.87)"/>
      <ellipse class="cls-32" cx="311.27" cy="153.16" rx=".16" ry=".42" transform="translate(107.77 434.11) rotate(-80.28)"/>
      <ellipse class="cls-32" cx="312.18" cy="150.78" rx=".16" ry=".42" transform="translate(55.61 383.94) rotate(-68.04)"/>
      <ellipse class="cls-32" cx="315.77" cy="149.44" rx=".16" ry=".42" transform="translate(-29.71 97.64) rotate(-16.8)"/>
      <ellipse class="cls-32" cx="320.21" cy="149.74" rx=".42" ry=".16" transform="translate(9.14 317.64) rotate(-53.42)"/>
      <ellipse class="cls-32" cx="323.3" cy="150.99" rx=".42" ry=".16" transform="translate(-32.18 181.88) rotate(-30)"/>
      <ellipse class="cls-32" cx="317.91" cy="158.01" rx=".42" ry=".16" transform="translate(155.08 473.48) rotate(-89.13)"/>
    </g>
    <g>
      <path class="cls-28" d="m303.13,175.01l-.17.19.19-.19h-.02Zm-13.12-5.89c-2.25-1.49-3.49-3.08-3.49-3.08l-.94,1.41s2.19,2.13,3.84,3.1c1.65.95,3.35,1.64,3.35,1.64l.94-1.41s-1.44-.17-3.7-1.65Zm6.57-5.05c-.67-2.1-.97-3.92-1.11-5.13-.03-.24-.05-.44-.06-.62-.02-.08-.02-.14-.02-.19-.03-.43-.03-.67-.03-.67l-2.08.65s.6,4.37,1.57,6.97c.3.83.65,1.64.95,2.35l.02.02c.67,1.49,1.24,2.57,1.24,2.57l.91-.29,1.19-.38s-1.38-1.56-2.57-5.29Zm-15.94,11.97v.03l.02.02v-.03l-.02-.02Zm-2.45-6.86l1.91-.87c-.29-.25-.59-.51-.91-.76-.59-.48-1.13-.87-1.64-1.21.02.03.03.06.05.1.4.75-1.57,1.3-3,1.59.48,1.03,1.18,2.32,2.1,3.68.64.95,1.24,1.71,1.78,2.32-.62-1.84-.87-3.26-.87-3.26l.59-1.59Zm1.98-.91l-.08.03s.03.03.05.05c.02.02.03.03.05.05-.02-.08-.02-.13-.02-.13Zm25.77,10.42l-.02-.02-.87-1.57-.78-.21c-.59-.68-1.03-1.29-1.33-1.7l-1.32,1.41s-1.51-.92-3.35-2.37c-.33-.25-.68-.54-1.03-.84l-.17.92-.14.7s-2.67-.06-5.4-.48c-1.83-.29-4.27-1.1-5.68-1.6-.62-.22-1.05-.38-1.14-.41l-.02-.02.32-1.56-1.18,1.45s-1.25-1.87-3.64-4c.05.29.17.97.43,1.94.06.21.11.41.17.65.08.22.14.46.22.71.21.68.48,1.43.81,2.22v.02s.02.05.03.08c0,0,.02.02.02.03.05.1.1.22.14.33l1.22-1.33s1.46,2.49,4.32,5.16c.83.76,1.59,1.37,2.22,1.83.43-.87,1.48-1.62,3.87-1.32,1.62.21,3.26.89,4.73,1.73.49.29.95.57,1.4.87.16.1.32.21.46.32.4.27.76.54,1.11.79,1.65,1.3,2.75,2.41,2.75,2.41l1.46-1.41s-.08-.52-.51-1.44c0,0-.03-.02-.08-.06-.17-.11-.62-.44-1.02-.86,0,0,0-.02-.02-.02-.06-.06-.13-.14-.19-.21-.33-.4-.6-.84-.57-1.27.02-.22.11-.43.33-.64.3-.27.62-.38.95-.4h.02c.57-.03,1.14.19,1.57.44l.03.02v.02h.02c.22.11.41.24.52.32-.24-.22-.46-.43-.68-.65Zm-1.24-10.46c-1.87-1.76-1.75-4.95-1.46-6.8.02-.13.03-.24.05-.33.02-.13.03-.27.06-.38.06-.46.14-.73.14-.73l-2.16.33s-.3,3,.11,4.81,1.14,3.48,1.14,3.48l2.16-.33s-.02-.02-.05-.05Zm-3.94-.56c-1.05-1.19-1.49-2.29-1.49-2.29l-.76.68s.91,1.54,1.68,2.33c.79.79,1.67,1.44,1.67,1.44l.76-.68s-.81-.32-1.86-1.49Z"/>
      <path class="cls-28" d="m278.84,177.28l-.3,1.67s-2.11-2.06-4.02-4.76c-1.91-2.68-2.97-5.59-2.97-5.59l.83-.56c.67,1.35,1.84,3.64,2.95,5.13,1.65,2.21,3.51,4.11,3.51,4.11Z"/>
      <polygon class="cls-28" points="280.66 176.06 280.66 176.09 280.65 176.08 280.66 176.06"/>
      <path class="cls-28" d="m272.37,168.04l-.83.56.3-1.67s.21.44.52,1.11Z"/>
      <path class="cls-12" d="m280.65,176.05v.03l-.92.6-.13.1-.17.11-.59.4s-1.86-1.91-3.51-4.11c-1.11-1.49-2.29-3.78-2.95-5.13-.32-.67-.52-1.11-.52-1.11l1.83-1.22s.29.92.94,2.32c.48,1.03,1.18,2.32,2.1,3.68.64.95,1.24,1.71,1.78,2.32,1.14,1.32,1.97,1.91,2.14,2.02h.02Z"/>
      <path class="cls-12" d="m280.66,176.06l-.02.02v-.03l.02.02Z"/>
      <polygon class="cls-12" points="280.66 176.09 280.43 177.32 280.35 177.73 280.14 177.87 278.54 178.95 278.84 177.28 279.43 176.89 279.6 176.78 279.73 176.68 280.65 176.08 280.66 176.09"/>
      <path class="cls-28" d="m280.66,176.06v.03l-.02-.02v-.03l.02.02Z"/>
      <path class="cls-28" d="m283.35,180.57l-.59,1.59s-1.32-1.84-2.62-4.29l.21-.14.08-.41.24-1.22c.44.84.91,1.65,1.32,2.33.76,1.27,1.37,2.14,1.37,2.14Z"/>
      <path class="cls-12" d="m285.13,180.25s-.03-.02-.06-.03c0,.03.03.05.05.06l-.35.97-2,.91.59-1.59.65-.3.62-.29h.02l.13-.06.57-.25-.21.59Z"/>
      <path class="cls-28" d="m285.13,180.25l-.02.03s-.05-.03-.05-.06c.03.02.05.02.06.03Z"/>
      <path class="cls-28" d="m280.63,176.05c-.17-.11-1-.7-2.14-2.02-.62-1.84-.87-3.26-.87-3.26l.59-1.59s.11.46.32,1.18c.43,1.45,1.21,3.91,2.05,5.56.02.05.05.08.06.13Z"/>
      <path class="cls-28" d="m280.19,168.28l-.03.08s-.03-.03-.05-.05l.08-.03Z"/>
      <path class="cls-12" d="m284.76,179.92l-.13.06h-.02l-.62.29-.65.3s-.6-.87-1.37-2.14c-.41-.68-.87-1.49-1.32-2.33v-.03l-.02-.02h-.02s-.05-.08-.06-.13c-.84-1.65-1.62-4.11-2.05-5.56-.21-.71-.32-1.18-.32-1.18l1.91-.87s.03.03.05.05c.02.02.03.03.05.05.1.59.54,3.02,1.83,5.99l-.19,1.95s1.14,1.75,2.92,3.57Z"/>
      <path class="cls-12" d="m280.2,168.41s-.03-.03-.05-.05c-.02-.02-.03-.03-.05-.05l.08-.03s0,.05.02.13Z"/>
      <path class="cls-12" d="m280.66,176.06v.03l-.02-.02v-.03l.02.02Z"/>
      <path class="cls-28" d="m285.13,180.25l-.02.03s-.05-.03-.05-.06c.03.02.05.02.06.03Z"/>
      <polygon class="cls-12" points="292.48 183.25 291 184.86 290.92 183.16 291.4 182.64 292.41 181.56 292.48 183.25"/>
      <path class="cls-12" d="m292.41,181.56l-1.02,1.08-.48.52s-.7-.44-1.67-1.14c-.78-.54-1.75-1.27-2.7-2.06-1.32-1.11-2.84-2.89-3.81-4.07,0,0,0-.02-.02-.02-.05-.11-.1-.21-.14-.32-.14-.27-.29-.54-.41-.84-.05-.11-.1-.22-.14-.32l1.22-1.33s1.46,2.49,4.32,5.16c.83.76,1.59,1.37,2.22,1.83,1.62,1.16,2.62,1.51,2.62,1.51Z"/>
      <path class="cls-28" d="m291,184.86s-2.52-1.54-5-3.73c-.32-.27-.6-.56-.89-.84l-.35-.37c-1.78-1.83-2.92-3.57-2.92-3.57l.19-1.95c.05.1.1.21.14.32.13.3,3.06,4.13,4.38,5.24.95.79,1.92,1.52,2.7,2.06.97.7,1.67,1.14,1.67,1.14l.08,1.7Z"/>
      <path class="cls-12" d="m285.03,169.03l-.64.78-.75.92s-2.11-3.13-3.91-4.61h-.02c-.08-.08-.14-.13-.22-.19-1.19-.91-3.18-1.94-4.41-2.54l.44-.56-.19-1.7s2.62,1.38,5.22,3.41c.37.29.71.57,1.05.86v.02c2.05,1.79,3.41,3.6,3.41,3.6Z"/>
      <polygon class="cls-12" points="275.54 162.83 275.09 163.39 274.15 164.53 273.96 162.83 275.34 161.13 275.54 162.83"/>
      <path class="cls-28" d="m285.19,170.39s-.05-.02-.05-.02l-.05.19-.08.38v.02l-1.18,1.45-.19-1.68.75-.92.64-.78.16,1.37Z"/>
      <path class="cls-28" d="m283.84,172.41s-1.25-1.87-3.64-4c-.02-.08-.02-.13-.02-.13l-.08.03c-.29-.25-.59-.51-.91-.76-.59-.48-1.13-.87-1.64-1.21v-.02c-2.11-1.43-3.41-1.79-3.41-1.79l.94-1.14c1.24.6,3.22,1.64,4.41,2.54.08.06.14.11.22.19h.02c1.79,1.48,3.91,4.61,3.91,4.61l.19,1.68Z"/>
      <path class="cls-28" d="m280.19,168.28s0,.05.02.13c-.02-.02-.03-.03-.05-.05-.02-.02-.03-.03-.05-.05l.08-.03Z"/>
      <path class="cls-28" d="m303.15,175.01l-.19.19.17-.19h.02Z"/>
      <path class="cls-28" d="m305.94,178.68c-.44-.43-.84-.86-1.19-1.27-.17-.17-.32-.35-.46-.51l.78.21.87,1.57Z"/>
      <path class="cls-28" d="m313.28,181.57l-.02.02v-.02h.02Z"/>
      <polygon class="cls-12" points="313.26 181.57 313.26 181.59 311.79 183.18 311.71 181.49 312.2 180.95 313.19 179.89 313.26 181.57"/>
      <path class="cls-12" d="m302.66,173.14s-.06-.03-.11-.05v-.11s.05.05.11.16Z"/>
      <path class="cls-28" d="m311.79,183.18l-.02.02s-2.51-1.54-4.99-3.73c-.02,0-.03-.02-.05-.03-.03-.03-.06-.06-.1-.08-.24-.22-.46-.43-.68-.65l-.02-.02-.87-1.57-.78-.21c-.59-.68-1.03-1.29-1.33-1.7l.19-.19h-.02l-.03-.84-.02-.14-.02-.38c.06.06.11.14.17.22.03.03.05.05.06.08.86,1.05,2.29,2.73,3.59,3.92.14.14.3.27.44.4,2.13,1.79,4.37,3.22,4.37,3.22l.08,1.68Z"/>
      <path class="cls-12" d="m313.19,179.89l-.98,1.06-.49.54s-2.24-1.43-4.37-3.22c-.14-.13-.3-.25-.44-.4-1.3-1.19-2.73-2.87-3.59-3.92-.02-.03-.03-.05-.06-.08-.06-.08-.11-.16-.17-.22l-.02-.33s-.13-.05-.38-.16l-.02-.02c-.06-.11-.11-.16-.11-.16l1.49-1.6s1.43,2.46,4.24,5.1h.02s.05.05.06.06c2.87,2.67,4.83,3.35,4.83,3.35Z"/>
      <path class="cls-12" d="m293.29,177.33l1.14-1.86s2.48.96,4.9,2.29,5.74,4.24,5.74,4.24l-1.26,1.21s-1.8-1.51-5.13-3.55c-3.34-2.04-5.39-2.33-5.39-2.33Z"/>
      <path class="cls-12" d="m299.16,169.36l-1.19.38-.91.29s-.57-1.08-1.24-2.57l-.02-.02c-.3-.71-.65-1.52-.95-2.35-.97-2.6-1.57-6.97-1.57-6.97l2.08-.65s0,.24.03.67c0,.05,0,.11.02.19.02.17.03.38.06.62.14,1.21.44,3.03,1.11,5.13,1.19,3.73,2.57,5.29,2.57,5.29Z"/>
      <path class="cls-12" d="m304.77,168.28l-2.16.33s-.73-1.67-1.14-3.48-.11-4.81-.11-4.81l2.16-.33s-.08.27-.14.73c-.03.11-.05.25-.06.38-.11.83-.16,2.05.05,3.45.35,2.27,1.18,3.43,1.37,3.68.03.03.05.05.05.05Z"/>
      <polygon class="cls-12" points="291.73 165.09 291.51 166.77 289.76 168.09 289.99 166.41 290.56 165.98 291.73 165.09"/>
      <path class="cls-28" d="m296.61,172.85c-2.49-2.21-4.19-4.81-4.19-4.81l.7-.75c-.43-.52-.7-.87-.7-.87l1.49-1.6s.64,1.1,1.91,2.62c-.3-.71-.65-1.52-.95-2.35-.97-2.6-1.57-6.97-1.57-6.97l-.43,1.05s1.43,3.91.94,4.4-2.68-2.7-4.7-1.41c-.13.08-.25.16-.38.24,1.76,2,3.02,2.7,3.02,2.7l-.22,1.68-1.75,1.32.22-1.68s-1.41-1.29-2.94-2.99c-.27-.3-.54-.62-.81-.94-1.18-1.43-2.48-3.65-3.21-4.95-.37-.65-.59-1.08-.59-1.08l-.22,1.68s1.22,2.84,3.27,5.41c.11.14.24.3.37.44-.98.41-1.83.48-2.21-.25-.76-1.46-2.99-3.29-2.99-3.29l-1.37.36v1.17s2.29,2.16,2.33,3.43v.02c2.05,1.79,3.41,3.6,3.41,3.6l.16,1.37c.33.19,2.78,1.43,6.32,2.14,2.59.52,4.35.51,5.22.43-.05-.03-.08-.08-.13-.11Zm-3.83-.67s-1.7-.68-3.35-1.64c-1.65-.97-3.84-3.1-3.84-3.1l.94-1.41s1.24,1.59,3.49,3.08c2.25,1.48,3.7,1.65,3.7,1.65l-.94,1.41Z"/>
      <path class="cls-12" d="m291.73,165.09l-1.18.89-.57.43s-1.41-1.29-2.94-2.99c-.27-.3-.54-.62-.81-.94-1.18-1.43-2.48-3.65-3.21-4.95-.37-.65-.59-1.08-.59-1.08l1.73-1.32s1,2.72,3.37,5.83c.41.54.81,1.02,1.18,1.43,1.76,2,3.02,2.7,3.02,2.7Z"/>
      <path class="cls-28" d="m298.32,174.3l-.44,2.14s-.46,0-1.22-.03h-.02c-.68-.05-1.6-.11-2.64-.24-.73-.08-1.51-.19-2.32-.33-1.21-.22-2.38-.54-3.35-.86h-.02c-.32-.11-.62-.22-.89-.33-1.08-.38-1.78-.71-1.78-.71l.21-.98c1.41.51,3.86,1.32,5.68,1.6,2.73.41,5.4.48,5.4.48l.14-.7c.75-.02,1.24-.03,1.24-.03Z"/>
      <path class="cls-12" d="m298.32,174.3l-.44,2.14-.94-1.41.14-.7.17-.92c.35.3.7.59,1.03.84l.03.05Z"/>
      <path class="cls-28" d="m285.86,172.95l-.21.98-.94-1.4c.1.03.52.19,1.14.41Z"/>
      <path class="cls-12" d="m297.26,173.41l-.17.92-.14.7s-2.67-.06-5.4-.48c-1.83-.29-4.27-1.1-5.68-1.6-.62-.22-1.05-.38-1.14-.41l-.02-.02.32-1.56v-.02l.08-.38.05-.19s.02,0,.05.02c.33.19,2.78,1.43,6.32,2.14,2.59.52,4.35.51,5.22.43.17.16.35.3.52.44Z"/>
      <path class="cls-28" d="m316.73,178.16s-.78-.32-1.89-.84c-.87-.41-1.94-.94-2.97-1.54-1.6-.92-3.62-2.56-4.75-3.53-.57-.49-.92-.81-.92-.81l1.18-1.84s.59.68,1.68,1.65c.24-1.16,1.02-2.57-.17-2.97-1.95-.67-1.98,1.92-4.11,0l-2.16.33s-.73-1.67-1.14-3.48-.11-4.81-.11-4.81l-.46.6s-.46,4.13-1.52,4.35c-1.37.27-3.38-2.99-3.89-6.34.14,1.21.44,3.03,1.11,5.13,1.19,3.73,2.57,5.29,2.57,5.29l-1.19.38c.08.08.17.16.25.24,2,1.86,3.56,2.75,4.32,3.11v-.11l1.49-1.6s1.43,2.46,4.24,5.1h.02c.24-.1.49-.14.81-.16.52-.03,1.62.43,2.81.97h.02c2.67,1.56,5.18,2.52,5.18,2.52l-.38-1.65Zm-14.85-8.31s-.87-.65-1.67-1.44c-.78-.79-1.68-2.33-1.68-2.33l.76-.68s.44,1.1,1.49,2.29c1.05,1.18,1.86,1.49,1.86,1.49l-.76.68Z"/>
      <polygon class="cls-12" points="318.28 177.97 317.11 179.81 316.73 178.16 317.11 177.55 317.9 176.32 318.28 177.97"/>
      <path class="cls-12" d="m317.9,176.32l-.79,1.24-.38.6s-.78-.32-1.89-.84c-.87-.41-1.94-.94-2.97-1.54-1.6-.92-3.62-2.56-4.75-3.53-.57-.49-.92-.81-.92-.81l1.18-1.84s.59.68,1.68,1.65c.86.78,2.03,1.72,3.49,2.64,3.3,2.11,5.35,2.43,5.35,2.43Z"/>
      <path class="cls-28" d="m301.64,176.62s-1.51-.92-3.35-2.37c-.33-.25-.68-.54-1.03-.84-.17-.14-.35-.29-.52-.44-.05-.03-.08-.08-.13-.11-2.49-2.21-4.19-4.81-4.19-4.81l.7-.75c.94,1.16,2.65,3.19,4.1,4.41,2.11,1.78,4.35,3.21,4.35,3.21l.08,1.7Z"/>
      <path class="cls-28" d="m303.15,175.01l-.19.19.17-.19h.02Z"/>
      <polygon class="cls-12" points="303.13 175.01 302.96 175.2 301.64 176.62 301.56 174.92 302.05 174.39 302.58 173.82 302.91 173.46 303.05 173.31 303.07 173.65 303.09 174.03 303.1 174.17 303.13 175.01"/>
      <path class="cls-12" d="m303.05,173.31l-.14.14-.33.37-.52.57-.49.52s-2.24-1.43-4.35-3.21c-1.45-1.22-3.16-3.26-4.1-4.41-.43-.52-.7-.87-.7-.87l1.49-1.6s.64,1.1,1.91,2.62l.02.02c.67,1.49,1.24,2.57,1.24,2.57l.91-.29c.08.08.17.16.25.24,2,1.86,3.56,2.75,4.32,3.11.05.02.08.03.11.05l.02.02c.25.11.38.16.38.16Z"/>
      <path class="cls-12" d="m297.97,169.74l-.91.29s-.57-1.08-1.24-2.57c.59.7,1.29,1.48,2.14,2.29Z"/>
      <path class="cls-28" d="m306.13,179.01l-.02.02h-.02c-.16.14-1.05.89-2.33,1.83,0,0-.02.02-.03.02-.46.35-1,.7-1.56,1.08-.27.16-.54.33-.81.49-.1.06-.21.13-.3.19-2.84,1.68-5.81,2.51-5.81,2.51l-.49-.87-.59-1.03s3.59-.79,5.62-1.91c.13-.06.25-.14.37-.21.14-.08.29-.17.43-.27.51-.35,1.06-.78,1.6-1.21.71-.6,1.43-1.22,1.95-1.7.24-.22.44-.41.6-.54.21-.19.32-.3.32-.3l.87,1.57.02.02.17.32Z"/>
      <polygon class="cls-12" points="306.13 179.01 306.1 179.01 306.07 179 304.5 178.57 304.5 178.55 304.48 178.55 304.15 177.95 303.44 176.66 304.29 176.9 305.07 177.11 305.94 178.68 305.96 178.7 306.13 179.01"/>
      <polygon class="cls-28" points="293.62 184.71 295.26 185.15 294.18 183.24 292.54 182.8 293.62 184.71"/>
      <path class="cls-12" d="m303.43,176.67l1.07,1.91s-2.04,1.7-4.39,3.17c-2.35,1.47-6.5,2.96-6.5,2.96l-1.07-1.91s2.82-.62,6.23-2.55c3.41-1.92,4.66-3.58,4.66-3.58Z"/>
      <path class="cls-12" d="m291.28,178l-.76.68s-.87-.64-1.66-1.44-1.7-2.34-1.7-2.34l.76-.68s.45,1.1,1.5,2.28,1.85,1.5,1.85,1.5Z"/>
      <path class="cls-12" d="m302.64,169.17l-.76.68s-.87-.65-1.67-1.44c-.78-.79-1.68-2.33-1.68-2.33l.76-.68s.44,1.1,1.49,2.29c1.05,1.18,1.86,1.49,1.86,1.49Z"/>
      <path class="cls-12" d="m293.72,170.77l-.94,1.41s-1.7-.68-3.35-1.64c-1.65-.97-3.84-3.1-3.84-3.1l.94-1.41s1.24,1.59,3.49,3.08c2.25,1.48,3.7,1.65,3.7,1.65Z"/>
      <path class="cls-12" d="m279.29,160.81l1-.85s1.11.85,2.11,1.88c.98,1.03,2.11,3.01,2.11,3.01l-1,.85s-.55-1.41-1.87-2.95c-1.32-1.52-2.36-1.95-2.36-1.95Z"/>
    </g>
    <g>
      <ellipse class="cls-27" cx="222.75" cy="207.21" rx="23.11" ry="15.62"/>
      <ellipse class="cls-32" cx="222.75" cy="206.07" rx="22.37" ry="14.69"/>
      <path class="cls-12" d="m222.75,193.45c-11.45,0-20.72,5.76-20.72,12.86s9.27,12.85,20.72,12.85,20.72-5.75,20.72-12.85-9.27-12.86-20.72-12.86Z"/>
      <path class="cls-28" d="m222.75,193.45c-11.45,0-20.72,5.76-20.72,12.86s9.27,12.85,20.72,12.85,20.72-5.75,20.72-12.85-9.27-12.86-20.72-12.86Zm10.74,14.13c-1.46,2.03.62,3.58,1.69,3.97,1.82.66.75,3.37-1.58,3.94-2.33.57-4.72-.67-4.91-2.1-.19-1.41-1.11-2.67-4.19-2.62-3.08.05-3.91,2.7-3.91,2.7,0,0-.6,1.44-2.16,2.16-.66.31-1.22.34-2.04.4-1.23.09-2.42.17-3.55-.42-1.31-.69-1.03-1.5-2.31-2.14-1.45-.72-2.72-.21-2.96-.65-.43-.8,1.6-1.74,1.66-2.36.06-.62-1.2-.68-1.11-1.32.08-.62,1.82-1.01,1.6-1.93s-4.57-.11-4.62-1.49c-.05-1.4,2.64-.84,2.64-1.46,0-.17-.48-.84-.36-1.35.1-.42.58-.84.52-1.14-.13-.69-.69-.55-.62-1.12.14-1.14,1.67-1.93,3.07-2.1,1.41-.17,2.62,1.79,3.6,1.36.98-.43.36-1.72.64-2.79.29-1.07,2.44-2.26,3.5-1.72s1.31,1.34,1.83,1.4c.52.05.61-1.14,1.21-1.23.61-.09,1.57.15,1.68.71.2,1.02.45,1.64,1.04,1.45s.25-1.67,1.98-1.72c.65-.02,1.48.54,2.18.68.7.14,1.82-.8,2.27-.61.74.31.36,1.1.82,1.26,1.17.4,2.38-.38,3.33-.05.95.33-.05,1.76.14,2.57.19.81.43,1.48,3.38,1.5,2.95.02,4.54,3.66,2.86,4.94s-5.88-.76-7.35,1.28Z"/>
      <g>
        <ellipse class="cls-21" cx="224.68" cy="213.48" rx="3.61" ry="2.55"/>
        <ellipse class="cls-19" cx="224.68" cy="213.07" rx="3.41" ry="2.15"/>
        <ellipse class="cls-21" cx="223.08" cy="213.4" rx=".92" ry=".58"/>
        <ellipse class="cls-21" cx="226.05" cy="213.35" rx=".67" ry=".42" transform="translate(-84.12 193.09) rotate(-39.61)"/>
        <ellipse class="cls-21" cx="224.22" cy="212.02" rx=".56" ry=".35"/>
      </g>
      <path class="cls-18" d="m218.75,210.44l-.11.56s-1.24-.84-2.16-.64c-.94.19-1.21,1.12-1.21,1.12l-.28.07c.33-1.14,1.45-1.51,1.45-1.51,1.27-.4,2.32.4,2.32.4Z"/>
      <path class="cls-22" d="m219.31,209.66l-.56.78s-1.05-.79-2.32-.4c0,0-1.11.37-1.45,1.51l-.4-.21s-.14-1.08,1.3-1.83c1.45-.75,3.41.14,3.41.14Z"/>
      <polygon class="cls-18" points="218.64 211 219.22 210.15 219.31 209.66 218.75 210.44 218.64 211"/>
      <path class="cls-18" d="m232.03,203.47l-.11.56s-1.32-.85-2.24-.64c-.17-.12-.4-.32-.57-.47,0-.19.06-.37.06-.37.3.28.54.52.54.52,1.27-.4,2.32.4,2.32.4Z"/>
      <path class="cls-22" d="m232.58,202.69l-.56.78s-1.05-.79-2.32-.4c0,0-.26-.28-.54-.52.69-.49,3.41.14,3.41.14Z"/>
      <polygon class="cls-18" points="231.92 204.02 232.5 203.18 232.58 202.69 232.03 203.47 231.92 204.02"/>
      <path class="cls-18" d="m220.02,200.59l-.06.33s-.22-1.73-1.08-2.35c.06-.36.15-.81.15-.81-.04.4-.09.75-.09.75,1.08.77,1.08,2.09,1.08,2.09Z"/>
      <path class="cls-22" d="m220.98,200.57l-.96.03s0-1.31-1.08-2.09c0,0,.06-.37.09-.75.81.25,1.95,2.81,1.95,2.81Z"/>
      <polygon class="cls-18" points="219.96 200.92 220.88 200.92 220.98 200.57 220.02 200.59 219.96 200.92"/>
      <ellipse class="cls-28" cx="218.94" cy="206.12" rx="1.16" ry=".44"/>
      <ellipse class="cls-12" cx="209.11" cy="209.22" rx=".64" ry=".39"/>
      <ellipse class="cls-28" cx="209.14" cy="209.27" rx=".61" ry=".35"/>
      <ellipse class="cls-12" cx="206.69" cy="201.9" rx=".7" ry=".43"/>
      <ellipse class="cls-12" cx="231.55" cy="204.02" rx=".7" ry=".43"/>
      <ellipse class="cls-28" cx="231.55" cy="204.07" rx=".7" ry=".38"/>
      <ellipse class="cls-28" cx="226.63" cy="197.76" rx="1.66" ry=".77"/>
      <g>
        <ellipse class="cls-21" cx="235.87" cy="200.92" rx="3.61" ry="2.55"/>
        <ellipse class="cls-19" cx="235.87" cy="200.52" rx="3.41" ry="2.15"/>
        <ellipse class="cls-21" cx="234.26" cy="200.85" rx=".92" ry=".58"/>
        <ellipse class="cls-21" cx="237.23" cy="200.8" rx=".67" ry=".42" transform="translate(-73.55 197.33) rotate(-39.61)"/>
        <ellipse class="cls-21" cx="235.41" cy="199.47" rx=".56" ry=".35"/>
      </g>
      <g>
        <ellipse class="cls-21" cx="211.84" cy="200.74" rx="3.61" ry="2.55"/>
        <ellipse class="cls-19" cx="211.84" cy="200.34" rx="3.41" ry="2.15"/>
        <ellipse class="cls-21" cx="210.23" cy="200.67" rx=".92" ry=".58"/>
        <ellipse class="cls-21" cx="213.21" cy="200.62" rx=".67" ry=".42" transform="translate(-78.96 181.98) rotate(-39.61)"/>
        <ellipse class="cls-21" cx="211.38" cy="199.29" rx=".56" ry=".35"/>
        <circle class="cls-21" cx="213.39" cy="199.38" r=".27"/>
        <circle class="cls-21" cx="211.84" cy="201.25" r=".27"/>
      </g>
      <g>
        <ellipse class="cls-21" cx="224" cy="196.34" rx="3.08" ry="2.18"/>
        <ellipse class="cls-19" cx="224" cy="196" rx="2.9" ry="1.84"/>
        <ellipse class="cls-21" cx="222.63" cy="196.28" rx=".78" ry=".49"/>
        <ellipse class="cls-21" cx="225.16" cy="196.24" rx=".57" ry=".36" transform="translate(-73.44 189.49) rotate(-39.78)"/>
        <ellipse class="cls-21" cx="223.61" cy="195.1" rx=".48" ry=".3"/>
      </g>
      <g>
        <ellipse class="cls-21" cx="211.83" cy="208.2" rx="3.08" ry="2.18"/>
        <ellipse class="cls-19" cx="211.83" cy="207.86" rx="2.9" ry="1.84"/>
        <ellipse class="cls-21" cx="210.47" cy="208.14" rx=".78" ry=".49"/>
        <ellipse class="cls-21" cx="213" cy="208.1" rx=".57" ry=".36" transform="translate(-83.84 184.46) rotate(-39.78)"/>
        <ellipse class="cls-21" cx="211.44" cy="206.96" rx=".48" ry=".3"/>
      </g>
      <g>
        <path class="cls-1" d="m225.78,206.42c1.45.96,1.61,2.21,1.61,2.21l.9-.24s-.46-1.83-2.25-2.57c-.01.43-.27.61-.27.61Z"/>
        <path class="cls-8" d="m225.78,206.42s1.26.8,1.63,2.51l.83-.14.05-.4-.83.14s-.19-1.47-1.68-2.11Z"/>
      </g>
      <g>
        <path class="cls-1" d="m213.22,204.44c1.24.17,1.73.94,1.73.94l.51-.44s-.86-1.05-2.25-.98c.12.28.01.48.01.48Z"/>
        <path class="cls-8" d="m213.22,204.44s1.06.13,1.83,1.13l.5-.35-.09-.28-.5.35s-.57-.89-1.74-.85Z"/>
      </g>
      <g>
        <path class="cls-1" d="m228.49,199.64c-1.16.46-1.45,1.32-1.45,1.32l-.6-.3s.59-1.22,1.95-1.49c-.05.3.1.46.1.46Z"/>
        <path class="cls-8" d="m228.49,199.64s-1,.38-1.51,1.53l-.57-.22.02-.29.57.22s.34-1,1.49-1.24Z"/>
      </g>
      <g>
        <ellipse class="cls-21" cx="236.27" cy="208.83" rx="3.08" ry="2.18"/>
        <ellipse class="cls-19" cx="236.27" cy="208.48" rx="2.9" ry="1.84"/>
        <ellipse class="cls-21" cx="234.91" cy="208.76" rx=".78" ry=".49"/>
        <ellipse class="cls-21" cx="237.44" cy="208.72" rx=".57" ry=".36" transform="translate(-78.58 200.24) rotate(-39.78)"/>
        <ellipse class="cls-21" cx="235.88" cy="207.58" rx=".48" ry=".3"/>
      </g>
      <ellipse class="cls-9" cx="214.18" cy="214.31" rx="2.05" ry="1.24"/>
      <ellipse class="cls-25" cx="214.18" cy="214.15" rx="2.05" ry="1.08"/>
      <ellipse class="cls-9" cx="231.36" cy="212.03" rx="1.3" ry="1.86" transform="translate(-82.38 219.13) rotate(-43.8)"/>
      <ellipse class="cls-25" cx="231.42" cy="211.96" rx="1.21" ry="1.85" transform="translate(-82.32 219.15) rotate(-43.8)"/>
      <ellipse class="cls-9" cx="216.48" cy="197.74" rx="1.3" ry="1.86" transform="translate(-76.37 183.4) rotate(-39.61)"/>
      <ellipse class="cls-25" cx="216.41" cy="197.66" rx="1.3" ry="1.74" transform="translate(-76.33 183.34) rotate(-39.61)"/>
      <ellipse class="cls-9" cx="230.56" cy="198.15" rx="1.58" ry="1.05" transform="translate(-71.07 236.15) rotate(-47.86)"/>
      <ellipse class="cls-25" cx="230.54" cy="198.09" rx="1.54" ry=".99" transform="translate(-71.03 236.12) rotate(-47.86)"/>
    </g>
    <g>
      <path class="cls-35" d="m275.36,187.09l-.03.38c-.02.1-.03.19-.06.29-.1-1.89-2.46-3.4-5.37-3.4s-5.27,1.51-5.37,3.4c-.03-.1-.05-.19-.06-.29l-.03-.38c0-2.02,2.45-3.65,5.46-3.65s5.46,1.64,5.46,3.65Z"/>
      <path class="cls-7" d="m275.33,187.47l-.37,3.89v.03c0,.13-.02.27-.05.4l-.97,10.39c0,1.49-1.81,2.7-4.05,2.7s-4.03-1.21-4.03-2.7l-.98-10.35c-.03-.14-.05-.29-.05-.43v-.06l-.37-3.86c.02.1.03.19.06.29v.11c0,.71.33,1.38.92,1.94v.02c.97.94,2.6,1.54,4.45,1.54s3.49-.6,4.45-1.54v-.02c.59-.56.92-1.22.92-1.94v-.11c.03-.1.05-.19.06-.29Z"/>
      <path class="cls-35" d="m275.27,187.79v.08c0,.71-.33,1.38-.92,1.94v.02c-.95.94-2.59,1.54-4.45,1.54s-3.48-.6-4.45-1.54v-.02c-.59-.56-.92-1.22-.92-1.94v-.08c.19.64.62,1.21,1.22,1.67,1,.78,2.49,1.27,4.14,1.27s3.14-.49,4.14-1.27c.6-.46,1.03-1.03,1.22-1.67Z"/>
      <path class="cls-11" d="m275.36,187.35l-.03.38c-.02.1-.03.19-.06.29-.1-1.89-2.46-3.4-5.37-3.4s-5.27,1.51-5.37,3.4c-.03-.1-.05-.19-.06-.29l-.03-.38c0-2.02,2.45-3.65,5.46-3.65s5.46,1.64,5.46,3.65Z"/>
      <path class="cls-17" d="m275.27,187.84v.03c-.19.68-.62,1.29-1.22,1.78-1,.83-2.49,1.36-4.14,1.36s-3.14-.53-4.14-1.36c-.6-.49-1.03-1.1-1.22-1.78v-.03c.1-2.02,2.48-3.64,5.37-3.64s5.27,1.61,5.37,3.64Z"/>
      <ellipse class="cls-3" cx="269.9" cy="187.4" rx="5.46" ry="3.96"/>
    </g>
    <g>
      <path class="cls-33" d="m346.38,128.59v9.04c0,2.13-2.57,3.84-5.75,3.84s-5.76-1.71-5.76-3.84v-9.04c0,2.13,2.57,3.86,5.76,3.86s5.75-1.73,5.75-3.86Z"/>
      <path class="cls-16" d="m346.38,124.32v4.27c0,2.13-2.57,3.86-5.75,3.86s-5.76-1.73-5.76-3.86v-4.27c0,.79.37,1.52.98,2.13v.02c1.03,1.03,2.78,1.7,4.76,1.7s3.75-.67,4.78-1.7v-.02c.62-.6.98-1.33.98-2.13Z"/>
      <path class="cls-16" d="m346.38,137.63v7.23c0,2.13-2.59,3.84-5.76,3.84s-5.75-1.72-5.75-3.84v-7.23c0,2.13,2.57,3.84,5.76,3.84s5.75-1.71,5.75-3.84Z"/>
      <path class="cls-23" d="m346.38,124.32c0,.79-.37,1.52-.98,2.13v.02c-1.03,1.03-2.79,1.7-4.78,1.7s-3.73-.67-4.76-1.7v-.02c-.62-.6-.98-1.33-.98-2.13,0-1.6,1.48-2.99,3.56-3.56v1.19c0,.81.98,1.46,2.19,1.46s2.21-.65,2.21-1.46v-1.18c2.08.57,3.56,1.94,3.56,3.54Z"/>
      <path class="cls-23" d="m343.25,113.54c0,.32-.13.64-.37.89-.46.52-1.3.87-2.27.87s-1.79-.35-2.25-.87c-.24-.25-.37-.57-.37-.89,0-.38.17-.73.49-1.02v1.02c0,.21.06.38.22.56.32.44,1.05.76,1.91.76s1.59-.32,1.91-.76c.16-.17.22-.35.22-.56v-1.03c.32.29.51.65.51,1.03Z"/>
      <path class="cls-16" d="m342.82,116.25v5.7c0,.81-.98,1.46-2.21,1.46s-2.19-.65-2.19-1.46v-5.7c.48.48,1.27.79,2.19.79s1.73-.32,2.21-.79Z"/>
      <path class="cls-16" d="m343.25,113.54v1.76c0,.35-.16.68-.43.95-.48.48-1.29.79-2.21.79s-1.72-.32-2.19-.79c-.27-.27-.43-.6-.43-.95v-1.76c0,.32.13.64.37.89.46.52,1.3.87,2.25.87s1.81-.35,2.27-.87c.24-.25.37-.57.37-.89Z"/>
      <path class="cls-30" d="m342.75,112.23c0,.08-.02.16-.05.24-.03.16-.13.29-.25.41-.35.38-1.03.65-1.83.65s-1.48-.27-1.83-.65c-.13-.13-.21-.25-.25-.4v-.02c-.03-.08-.05-.16-.05-.24,0-.73.95-1.32,2.13-1.32s2.13.59,2.13,1.32Z"/>
      <path class="cls-34" d="m342.75,112.5v1.03c0,.21-.06.38-.22.56-.32.44-1.05.76-1.91.76s-1.59-.32-1.91-.76c-.16-.17-.22-.35-.22-.56v-1.02s.03-.03.05-.03c.05.14.13.27.25.4.35.38,1.03.65,1.83.65s1.48-.27,1.83-.65c.13-.13.22-.25.25-.41.02,0,.03.02.05.03Z"/>
    </g>
    <g>
      <path class="cls-33" d="m262.12,173.7v9.04c0,2.13-2.57,3.84-5.75,3.84s-5.76-1.71-5.76-3.84v-9.04c0,2.13,2.57,3.86,5.76,3.86s5.75-1.73,5.75-3.86Z"/>
      <path class="cls-16" d="m262.12,169.43v4.27c0,2.13-2.57,3.86-5.75,3.86s-5.76-1.73-5.76-3.86v-4.27c0,.79.37,1.52.98,2.13v.02c1.03,1.03,2.78,1.7,4.76,1.7s3.75-.67,4.78-1.7v-.02c.62-.6.98-1.33.98-2.13Z"/>
      <path class="cls-16" d="m262.12,182.74v7.23c0,2.13-2.59,3.84-5.76,3.84s-5.75-1.72-5.75-3.84v-7.23c0,2.13,2.57,3.84,5.76,3.84s5.75-1.71,5.75-3.84Z"/>
      <path class="cls-23" d="m262.12,169.43c0,.79-.37,1.52-.98,2.13v.02c-1.03,1.03-2.79,1.7-4.78,1.7s-3.73-.67-4.76-1.7v-.02c-.62-.6-.98-1.33-.98-2.13,0-1.6,1.48-2.99,3.56-3.56v1.19c0,.81.98,1.46,2.19,1.46s2.21-.65,2.21-1.46v-1.18c2.08.57,3.56,1.94,3.56,3.54Z"/>
      <path class="cls-23" d="m258.99,158.65c0,.32-.13.64-.37.89-.46.52-1.3.87-2.27.87s-1.79-.35-2.25-.87c-.24-.25-.37-.57-.37-.89,0-.38.17-.73.49-1.02v1.02c0,.21.06.38.22.56.32.44,1.05.76,1.91.76s1.59-.32,1.91-.76c.16-.17.22-.35.22-.56v-1.03c.32.29.51.65.51,1.03Z"/>
      <path class="cls-16" d="m258.56,161.36v5.7c0,.81-.98,1.46-2.21,1.46s-2.19-.65-2.19-1.46v-5.7c.48.48,1.27.79,2.19.79s1.73-.32,2.21-.79Z"/>
      <path class="cls-16" d="m258.99,158.65v1.76c0,.35-.16.68-.43.95-.48.48-1.29.79-2.21.79s-1.72-.32-2.19-.79c-.27-.27-.43-.6-.43-.95v-1.76c0,.32.13.64.37.89.46.52,1.3.87,2.25.87s1.81-.35,2.27-.87c.24-.25.37-.57.37-.89Z"/>
      <path class="cls-30" d="m258.48,157.35c0,.08-.02.16-.05.24-.03.16-.13.29-.25.41-.35.38-1.03.65-1.83.65s-1.48-.27-1.83-.65c-.13-.13-.21-.25-.25-.4v-.02c-.03-.08-.05-.16-.05-.24,0-.73.95-1.32,2.13-1.32s2.13.59,2.13,1.32Z"/>
      <path class="cls-34" d="m258.48,157.62v1.03c0,.21-.06.38-.22.56-.32.44-1.05.76-1.91.76s-1.59-.32-1.91-.76c-.16-.17-.22-.35-.22-.56v-1.02s.03-.03.05-.03c.05.14.13.27.25.4.35.38,1.03.65,1.83.65s1.48-.27,1.83-.65c.13-.13.22-.25.25-.41.02,0,.03.02.05.03Z"/>
    </g>
    <g>
      <path class="cls-35" d="m345.6,146.51l-.03.38c-.02.1-.03.19-.06.29-.1-1.89-2.46-3.4-5.37-3.4s-5.27,1.51-5.37,3.4c-.03-.1-.05-.19-.06-.29l-.03-.38c0-2.02,2.45-3.65,5.46-3.65s5.46,1.64,5.46,3.65Z"/>
      <path class="cls-7" d="m345.56,146.89l-.37,3.89v.03c0,.13-.02.27-.05.4l-.97,10.39c0,1.49-1.81,2.7-4.05,2.7s-4.03-1.21-4.03-2.7l-.98-10.35c-.03-.14-.05-.29-.05-.43v-.06l-.37-3.86c.02.1.03.19.06.29v.11c0,.71.33,1.38.92,1.94v.02c.97.94,2.6,1.54,4.45,1.54s3.49-.6,4.45-1.54v-.02c.59-.56.92-1.22.92-1.94v-.11c.03-.1.05-.19.06-.29Z"/>
      <path class="cls-35" d="m345.5,147.21v.08c0,.71-.33,1.38-.92,1.94v.02c-.95.94-2.59,1.54-4.45,1.54s-3.48-.6-4.45-1.54v-.02c-.59-.56-.92-1.22-.92-1.94v-.08c.19.64.62,1.21,1.22,1.67,1,.78,2.49,1.27,4.14,1.27s3.14-.49,4.14-1.27c.6-.46,1.03-1.03,1.22-1.67Z"/>
      <path class="cls-11" d="m345.6,146.77l-.03.38c-.02.1-.03.19-.06.29-.1-1.89-2.46-3.4-5.37-3.4s-5.27,1.51-5.37,3.4c-.03-.1-.05-.19-.06-.29l-.03-.38c0-2.02,2.45-3.65,5.46-3.65s5.46,1.64,5.46,3.65Z"/>
      <path class="cls-17" d="m345.5,147.26v.03c-.19.68-.62,1.29-1.22,1.78-1,.83-2.49,1.36-4.14,1.36s-3.14-.53-4.14-1.36c-.6-.49-1.03-1.1-1.22-1.78v-.03c.1-2.02,2.48-3.64,5.37-3.64s5.27,1.61,5.37,3.64Z"/>
      <ellipse class="cls-3" cx="340.13" cy="146.82" rx="5.46" ry="3.96"/>
    </g>
    <g>
      <path class="cls-35" d="m358.43,136.97l-.03.38c-.02.1-.03.19-.06.29-.1-1.89-2.46-3.4-5.37-3.4s-5.27,1.51-5.37,3.4c-.03-.1-.05-.19-.06-.29l-.03-.38c0-2.02,2.45-3.65,5.46-3.65s5.46,1.64,5.46,3.65Z"/>
      <path class="cls-7" d="m358.4,137.35l-.37,3.89v.03c0,.13-.02.27-.05.4l-.97,10.39c0,1.49-1.81,2.7-4.05,2.7s-4.03-1.21-4.03-2.7l-.98-10.35c-.03-.14-.05-.29-.05-.43v-.06l-.37-3.86c.02.1.03.19.06.29v.11c0,.71.33,1.38.92,1.94v.02c.97.94,2.6,1.54,4.45,1.54s3.49-.6,4.45-1.54v-.02c.59-.56.92-1.22.92-1.94v-.11c.03-.1.05-.19.06-.29Z"/>
      <path class="cls-35" d="m358.34,137.67v.08c0,.71-.33,1.38-.92,1.94v.02c-.95.94-2.59,1.54-4.45,1.54s-3.48-.6-4.45-1.54v-.02c-.59-.56-.92-1.22-.92-1.94v-.08c.19.64.62,1.21,1.22,1.67,1,.78,2.49,1.27,4.14,1.27s3.14-.49,4.14-1.27c.6-.46,1.03-1.03,1.22-1.67Z"/>
      <path class="cls-11" d="m358.43,137.22l-.03.38c-.02.1-.03.19-.06.29-.1-1.89-2.46-3.4-5.37-3.4s-5.27,1.51-5.37,3.4c-.03-.1-.05-.19-.06-.29l-.03-.38c0-2.02,2.45-3.65,5.46-3.65s5.46,1.64,5.46,3.65Z"/>
      <path class="cls-17" d="m358.34,137.72v.03c-.19.68-.62,1.29-1.22,1.78-1,.83-2.49,1.36-4.14,1.36s-3.14-.53-4.14-1.36c-.6-.49-1.03-1.1-1.22-1.78v-.03c.1-2.02,2.48-3.64,5.37-3.64s5.27,1.61,5.37,3.64Z"/>
      <ellipse class="cls-3" cx="352.97" cy="137.28" rx="5.46" ry="3.96"/>
    </g>
    <g>
      <g>
        <path class="cls-35" d="m104.72,283.53c-8.78,0-15.88,4.75-15.88,10.61,0,.64.08,1.25.25,1.86.87,3.35,4.1,6.15,8.5,7.61,2.14.73,4.56,1.14,7.13,1.14s4.99-.41,7.13-1.14c4.4-1.46,7.62-4.26,8.5-7.61.17-.6.25-1.22.25-1.86,0-5.86-7.11-10.61-15.88-10.61Zm3.13,18.96h-.02c-1,.16-2.05.24-3.11.24s-2.11-.08-3.11-.24h-.02c-5.99-.89-10.45-4.29-10.45-8.35,0-4.73,6.08-8.57,13.58-8.57s13.58,3.84,13.58,8.57c0,4.07-4.46,7.46-10.45,8.35Z"/>
        <path class="cls-13" d="m120.34,296l-2.05,15.31c0,5-6.08,9.07-13.58,9.07s-13.58-4.07-13.58-9.07l-2.05-15.31c.87,3.35,4.1,6.15,8.5,7.61,2.14.73,4.56,1.14,7.13,1.14s4.99-.41,7.13-1.14c4.4-1.46,7.62-4.26,8.5-7.61Z"/>
        <path class="cls-15" d="m118.3,294.14c0,4.07-4.46,7.46-10.45,8.35h-.02c-1,.16-2.05.24-3.11.24s-2.11-.08-3.11-.24h-.02c-5.99-.89-10.45-4.29-10.45-8.35,0-4.73,6.08-8.57,13.58-8.57s13.58,3.84,13.58,8.57Z"/>
      </g>
      <ellipse class="cls-29" cx="104.72" cy="293.61" rx="2.29" ry="1.53"/>
      <polyline class="cls-29" points="102.43 293.61 102.43 260.46 107.01 260.46 107.01 293.61"/>
      <path class="cls-14" d="m129.05,244.07v22.9c-.08.67-.35,1.35-.79,2.02-.52.83-1.33,1.62-2.32,2.22-.02,0-.02.02-.02.02-.16.1-.32.19-.48.27l-19.42,11.1-.67.37c-1.65.87-3.4,1.05-4.65.57v-.02l-.84-.48c-.22-.17-.41-.38-.57-.62-.25-.43-.38-.91-.38-1.41v-21.64c0-4.19,2.94-6.94,5.02-8.34l1.95-1.13h.02l16.82-9.61c1.91-1.1,3.26-1.21,4.19-.81h.02l.11.06c1.64.79,1.97,3.24,2.02,4.53Z"/>
      <path class="cls-5" d="m126.9,239.48c-.94-.4-2.29-.29-4.19.81l-16.82,9.61h-.02c-.14.06-.94.43-1.95,1.13-2.08,1.4-5.02,4.14-5.02,8.34v21.64c0,.51.13.98.38,1.41.16.24.35.44.57.62l.84.48v.02l-1.79-1.02-16.07-9.08-2.29-1.29c-.4-.22-.71-.52-.94-.89-.14-.24-.25-.49-.3-.76v-22.33c0-1.83.57-3.4,1.37-4.68,1.05-1.65,2.48-2.87,3.64-3.65l1.97-1.13h.02l16.9-9.65s.08-.06.13-.08c2.65-1.45,4.11-.62,4.11-.62l18.1,10.32,1.37.81Z"/>
      <ellipse class="cls-29" cx="104.72" cy="238.27" rx="2.29" ry="1.53"/>
      <polyline class="cls-29" points="102.43 238.27 102.43 205.12 107.01 205.12 107.01 238.27"/>
      <path class="cls-14" d="m120.87,205.1v15.37c-.05.44-.24.91-.54,1.35-.35.56-.89,1.08-1.56,1.49v.02c-.11.06-.21.13-.32.17l-13.05,7.45-.43.25c-1.11.57-2.29.7-3.13.38v-.02l-.51-.29-.06-.03c-.14-.11-.27-.25-.38-.43-.17-.27-.25-.6-.25-.94v-14.53c0-2.81,1.97-4.65,3.37-5.59.08-.06.17-.11.25-.16.21-.13.38-.24.54-.32l.38-.21c.06-.05.11-.06.14-.08h.02l11.27-6.43c1.29-.75,2.19-.83,2.81-.56h.02l.08.05c1.1.52,1.32,2.18,1.35,3.03Z"/>
      <path class="cls-5" d="m119.42,202.02c-.62-.27-1.52-.19-2.81.56l-11.27,6.43h-.02s-.08.03-.14.08c-.1.05-.22.11-.38.21-.16.08-.33.19-.54.32-.08.05-.17.1-.25.16-1.4.94-3.37,2.78-3.37,5.59v14.53c0,.33.08.67.25.94.11.17.24.32.38.43l-.64-.35-10.78-6.1-1.54-.87c-.25-.14-.48-.35-.62-.59-.11-.16-.17-.33-.21-.52v-14.97c0-1.22.38-2.27.92-3.14.7-1.11,1.65-1.92,2.43-2.45l1.33-.76,11.34-6.48s.06-.03.1-.05c1.78-.97,2.75-.43,2.75-.43l12.15,6.94.92.54Z"/>
    </g>
  </g>
</svg>