<?xml version="1.0" encoding="UTF-8"?>
<svg id="Capa_1" data-name="Capa 1" xmlns="http://www.w3.org/2000/svg" viewBox="0 0 177.06 97.55">
  <defs>
    <style>
      .cls-1 {
        fill: #2b262d;
      }
    </style>
  </defs>
  <path class="cls-1" d="m177.06,97.55h-.28s-15.71,0-15.71,0c-.71,0-1.36-.4-1.67-1.04L126.56,30.29l-23.89,47.21c-.7,1.39-2.68,1.39-3.38,0l-25.72-50.59-35.39,69.62c-.32.63-.96,1.02-1.66,1.02H0c12.52,0,20.15-16.1,23.44-21.57L61.41,1.02c.69-1.36,2.63-1.36,3.33,0l29.85,58.69c.7,1.38,2.68,1.38,3.38,0l22.22-43.89c.69-1.37,2.65-1.36,3.33.01,0,0,29.16,58.58,29.27,58.78,2.76,5.07,10.84,22.96,24.28,22.96Z"/>
</svg>